<mxfile host="app.diagrams.net" modified="2023-05-04T01:30:15.819Z" agent="Mozilla/5.0 (Windows NT 10.0; Win64; x64) AppleWebKit/537.36 (KHTML, like Gecko) Chrome/112.0.0.0 Safari/537.36" etag="i-qwB21zHZepsziP_N94" version="21.2.7" type="device">
  <diagram name="Page-1" id="13e1069c-82ec-6db2-03f1-153e76fe0fe0">
    <mxGraphModel dx="1434" dy="764" grid="1" gridSize="10" guides="1" tooltips="1" connect="1" arrows="1" fold="1" page="1" pageScale="1" pageWidth="1100" pageHeight="850" background="none" math="0" shadow="0">
      <root>
        <mxCell id="0" />
        <mxCell id="1" parent="0" />
        <mxCell id="7baba1c4bc27f4b0-2" value="페이지" style="shape=umlLifeline;perimeter=lifelinePerimeter;whiteSpace=wrap;html=1;container=1;collapsible=0;recursiveResize=0;outlineConnect=0;rounded=1;shadow=0;comic=0;labelBackgroundColor=none;strokeWidth=1;fontFamily=Verdana;fontSize=12;align=center;" parent="1" vertex="1">
          <mxGeometry x="314" y="109" width="100" height="3061" as="geometry" />
        </mxCell>
        <mxCell id="7baba1c4bc27f4b0-3" value="스토어 / Axios" style="shape=umlLifeline;perimeter=lifelinePerimeter;whiteSpace=wrap;html=1;container=1;collapsible=0;recursiveResize=0;outlineConnect=0;rounded=1;shadow=0;comic=0;labelBackgroundColor=none;strokeWidth=1;fontFamily=Verdana;fontSize=12;align=center;movable=1;resizable=1;rotatable=1;deletable=1;editable=1;locked=0;connectable=1;" parent="1" vertex="1">
          <mxGeometry x="534" y="109" width="100" height="3061" as="geometry" />
        </mxCell>
        <mxCell id="7baba1c4bc27f4b0-4" value="KAKAO_API" style="shape=umlLifeline;perimeter=lifelinePerimeter;whiteSpace=wrap;html=1;container=1;collapsible=0;recursiveResize=0;outlineConnect=0;rounded=1;shadow=0;comic=0;labelBackgroundColor=none;strokeWidth=1;fontFamily=Verdana;fontSize=12;align=center;" parent="1" vertex="1">
          <mxGeometry x="909" y="109" width="100" height="3061" as="geometry" />
        </mxCell>
        <mxCell id="7baba1c4bc27f4b0-8" value="유저" style="shape=umlLifeline;perimeter=lifelinePerimeter;whiteSpace=wrap;html=1;container=1;collapsible=0;recursiveResize=0;outlineConnect=0;rounded=1;shadow=0;comic=0;labelBackgroundColor=none;strokeWidth=1;fontFamily=Verdana;fontSize=12;align=center;" parent="1" vertex="1">
          <mxGeometry x="94" y="109" width="100" height="3061" as="geometry" />
        </mxCell>
        <mxCell id="7baba1c4bc27f4b0-11" value="1. 이메일, 닉네임 중복 체크 요청" style="html=1;verticalAlign=bottom;endArrow=block;labelBackgroundColor=none;fontFamily=Helvetica;fontSize=12;edgeStyle=elbowEdgeStyle;elbow=vertical;align=left;fontStyle=1" parent="1" edge="1">
          <mxGeometry x="-1" relative="1" as="geometry">
            <mxPoint x="143.5" y="219" as="sourcePoint" />
            <mxPoint x="363.5" y="219" as="targetPoint" />
            <mxPoint as="offset" />
          </mxGeometry>
        </mxCell>
        <mxCell id="d7kwrDIypniRsh-_axAG-28" value="유저" style="rounded=1;whiteSpace=wrap;html=1;fontSize=12;" parent="1" vertex="1">
          <mxGeometry x="94" y="3170" width="100" height="40" as="geometry" />
        </mxCell>
        <mxCell id="d7kwrDIypniRsh-_axAG-29" value="페이지" style="rounded=1;whiteSpace=wrap;html=1;fontSize=12;" parent="1" vertex="1">
          <mxGeometry x="314" y="3170" width="100" height="40" as="geometry" />
        </mxCell>
        <mxCell id="d7kwrDIypniRsh-_axAG-30" value="스토어 / Axios" style="rounded=1;whiteSpace=wrap;html=1;fontSize=12;" parent="1" vertex="1">
          <mxGeometry x="534" y="3170" width="100" height="40" as="geometry" />
        </mxCell>
        <mxCell id="d7kwrDIypniRsh-_axAG-31" value="KAKAO_API" style="rounded=1;whiteSpace=wrap;html=1;fontSize=12;" parent="1" vertex="1">
          <mxGeometry x="909" y="3170" width="100" height="40" as="geometry" />
        </mxCell>
        <mxCell id="d7kwrDIypniRsh-_axAG-33" value="&lt;span style=&quot;font-size: 25px;&quot;&gt;&lt;b&gt;인증 기능 - 회원가입 / 로그인 / 소셜 회원가입 / 소셜 로그인 / 회원탈퇴&lt;/b&gt;&lt;/span&gt;" style="text;html=1;strokeColor=none;fillColor=none;align=center;verticalAlign=middle;whiteSpace=wrap;rounded=0;fontSize=12;" parent="1" vertex="1">
          <mxGeometry x="154" y="40" width="792" height="30" as="geometry" />
        </mxCell>
        <mxCell id="fj5dnLexoJdEt0vvxZNv-23" value="백엔드 API" style="shape=umlLifeline;perimeter=lifelinePerimeter;whiteSpace=wrap;html=1;container=1;collapsible=0;recursiveResize=0;outlineConnect=0;rounded=1;shadow=0;comic=0;labelBackgroundColor=none;strokeWidth=1;fontFamily=Verdana;fontSize=12;align=center;" parent="1" vertex="1">
          <mxGeometry x="764" y="109" width="100" height="3061" as="geometry" />
        </mxCell>
        <mxCell id="fj5dnLexoJdEt0vvxZNv-26" value="백엔드 API" style="rounded=1;whiteSpace=wrap;html=1;fontSize=12;" parent="1" vertex="1">
          <mxGeometry x="764" y="3170" width="100" height="40" as="geometry" />
        </mxCell>
        <mxCell id="fj5dnLexoJdEt0vvxZNv-49" value="회원가입" style="shape=umlFrame;whiteSpace=wrap;html=1;pointerEvents=0;width=126;height=20;fillColor=#fff2cc;strokeColor=#d6b656;" parent="1" vertex="1">
          <mxGeometry x="74" y="170" width="930" height="360" as="geometry" />
        </mxCell>
        <mxCell id="N0yfgly27lMoUbKmG3n6-59" value="18. 로그아웃 요청" style="html=1;verticalAlign=bottom;endArrow=block;labelBackgroundColor=none;fontFamily=Helvetica;fontSize=12;edgeStyle=elbowEdgeStyle;elbow=vertical;align=left;fontStyle=1" parent="1" edge="1">
          <mxGeometry x="-0.9972" relative="1" as="geometry">
            <mxPoint x="144" y="2051.4500000000003" as="sourcePoint" />
            <mxPoint x="364" y="2051.4500000000003" as="targetPoint" />
            <mxPoint as="offset" />
          </mxGeometry>
        </mxCell>
        <mxCell id="N0yfgly27lMoUbKmG3n6-60" value="19. 백엔드 API 서버 통신 요청&lt;br&gt;(HTTPD 리프레시 토큰 전달)" style="html=1;verticalAlign=bottom;endArrow=block;labelBackgroundColor=none;fontFamily=Helvetica;fontSize=12;edgeStyle=elbowEdgeStyle;elbow=vertical;align=left;fontStyle=1" parent="1" edge="1">
          <mxGeometry x="-1" relative="1" as="geometry">
            <mxPoint x="363" y="2073.11" as="sourcePoint" />
            <mxPoint x="583.5" y="2073.11" as="targetPoint" />
            <mxPoint as="offset" />
          </mxGeometry>
        </mxCell>
        <mxCell id="N0yfgly27lMoUbKmG3n6-61" value="20. [DELETE] /api/v1/logout" style="html=1;verticalAlign=bottom;endArrow=block;labelBackgroundColor=none;fontFamily=Helvetica;fontSize=12;edgeStyle=elbowEdgeStyle;elbow=vertical;align=left;fontStyle=1;" parent="1" edge="1">
          <mxGeometry x="-1" relative="1" as="geometry">
            <mxPoint x="582.5" y="2093.11" as="sourcePoint" />
            <mxPoint x="813" y="2093.11" as="targetPoint" />
            <mxPoint as="offset" />
            <Array as="points">
              <mxPoint x="813" y="2093.11" />
            </Array>
          </mxGeometry>
        </mxCell>
        <mxCell id="N0yfgly27lMoUbKmG3n6-63" value="22. 인증 상태값 삭제,&amp;nbsp; false 처리" style="endArrow=classic;html=1;rounded=0;dashed=1;align=right;fontSize=12;fontStyle=1" parent="1" edge="1">
          <mxGeometry x="-1" y="-10" width="50" height="50" relative="1" as="geometry">
            <mxPoint x="583" y="2167.11" as="sourcePoint" />
            <mxPoint x="363" y="2167.11" as="targetPoint" />
            <Array as="points">
              <mxPoint x="563" y="2167.11" />
            </Array>
            <mxPoint x="1" as="offset" />
          </mxGeometry>
        </mxCell>
        <mxCell id="N0yfgly27lMoUbKmG3n6-64" value="23. 로그인된 상태 해제" style="endArrow=classic;html=1;rounded=0;dashed=1;align=right;fontSize=12;fontStyle=1" parent="1" edge="1">
          <mxGeometry x="-1" y="-10" width="50" height="50" relative="1" as="geometry">
            <mxPoint x="363" y="2188.11" as="sourcePoint" />
            <mxPoint x="143" y="2188.11" as="targetPoint" />
            <Array as="points">
              <mxPoint x="363" y="2188.11" />
              <mxPoint x="333" y="2188.11" />
            </Array>
            <mxPoint as="offset" />
          </mxGeometry>
        </mxCell>
        <mxCell id="N0yfgly27lMoUbKmG3n6-68" value="로그아웃" style="shape=umlFrame;whiteSpace=wrap;html=1;pointerEvents=0;width=90;height=20;fillColor=#f8cecc;strokeColor=#b85450;" parent="1" vertex="1">
          <mxGeometry x="74" y="2000" width="930" height="220" as="geometry" />
        </mxCell>
        <mxCell id="N0yfgly27lMoUbKmG3n6-69" value="2. 백엔드 API 서버 통신 요청" style="html=1;verticalAlign=bottom;endArrow=block;labelBackgroundColor=none;fontFamily=Helvetica;fontSize=12;edgeStyle=elbowEdgeStyle;elbow=vertical;align=left;fontStyle=1" parent="1" edge="1">
          <mxGeometry x="-1" relative="1" as="geometry">
            <mxPoint x="364" y="237.27" as="sourcePoint" />
            <mxPoint x="584.5" y="237.27" as="targetPoint" />
            <mxPoint as="offset" />
          </mxGeometry>
        </mxCell>
        <mxCell id="N0yfgly27lMoUbKmG3n6-70" value="3.&lt;br&gt;[POST] /api/v1/emailCheck,&lt;br&gt;[POST] /api/v1/nicknameCheck" style="html=1;verticalAlign=bottom;endArrow=block;labelBackgroundColor=none;fontFamily=Helvetica;fontSize=12;edgeStyle=elbowEdgeStyle;elbow=vertical;align=left;fontStyle=1;" parent="1" edge="1">
          <mxGeometry x="-1" relative="1" as="geometry">
            <mxPoint x="583.5" y="257.27" as="sourcePoint" />
            <mxPoint x="814" y="257.27" as="targetPoint" />
            <mxPoint as="offset" />
            <Array as="points">
              <mxPoint x="814" y="257.27" />
            </Array>
          </mxGeometry>
        </mxCell>
        <mxCell id="N0yfgly27lMoUbKmG3n6-71" value="5. 결과값 저장 및 컴포넌트에 전달" style="endArrow=classic;html=1;rounded=0;dashed=1;align=right;fontSize=12;fontStyle=1" parent="1" edge="1">
          <mxGeometry x="-1" y="-10" width="50" height="50" relative="1" as="geometry">
            <mxPoint x="583" y="313" as="sourcePoint" />
            <mxPoint x="363" y="313" as="targetPoint" />
            <Array as="points">
              <mxPoint x="563" y="313" />
            </Array>
            <mxPoint x="1" as="offset" />
          </mxGeometry>
        </mxCell>
        <mxCell id="N0yfgly27lMoUbKmG3n6-72" value="6. 중복 체크 결과 화면 처리" style="endArrow=classic;html=1;rounded=0;dashed=1;align=right;fontSize=12;fontStyle=1" parent="1" edge="1">
          <mxGeometry x="-1" y="-10" width="50" height="50" relative="1" as="geometry">
            <mxPoint x="363" y="334" as="sourcePoint" />
            <mxPoint x="143" y="334" as="targetPoint" />
            <Array as="points">
              <mxPoint x="363" y="334" />
              <mxPoint x="333" y="334" />
            </Array>
            <mxPoint as="offset" />
          </mxGeometry>
        </mxCell>
        <mxCell id="N0yfgly27lMoUbKmG3n6-73" value="4. 중복 체크 결과 전달" style="endArrow=classic;html=1;rounded=0;dashed=1;align=right;fontSize=12;fontStyle=1" parent="1" edge="1">
          <mxGeometry x="-1" y="-10" width="50" height="50" relative="1" as="geometry">
            <mxPoint x="814" y="289" as="sourcePoint" />
            <mxPoint x="583" y="289" as="targetPoint" />
            <Array as="points">
              <mxPoint x="779" y="289" />
              <mxPoint x="749" y="289" />
            </Array>
            <mxPoint x="1" as="offset" />
          </mxGeometry>
        </mxCell>
        <mxCell id="N0yfgly27lMoUbKmG3n6-171" value="13. 백엔드 API 서버 통신 요청&lt;br&gt;(HTTPD 리프레시 토큰 전달)" style="html=1;verticalAlign=bottom;endArrow=block;labelBackgroundColor=none;fontFamily=Helvetica;fontSize=12;edgeStyle=elbowEdgeStyle;elbow=vertical;align=left;fontStyle=1" parent="1" edge="1">
          <mxGeometry x="-1" relative="1" as="geometry">
            <mxPoint x="365" y="1850.3" as="sourcePoint" />
            <mxPoint x="585.5" y="1850.3" as="targetPoint" />
            <mxPoint as="offset" />
          </mxGeometry>
        </mxCell>
        <mxCell id="N0yfgly27lMoUbKmG3n6-172" value="14. [POST] /api/v1/refresh" style="html=1;verticalAlign=bottom;endArrow=block;labelBackgroundColor=none;fontFamily=Helvetica;fontSize=12;edgeStyle=elbowEdgeStyle;elbow=vertical;align=left;fontStyle=1;" parent="1" edge="1">
          <mxGeometry x="-1" relative="1" as="geometry">
            <mxPoint x="584.5" y="1865.3" as="sourcePoint" />
            <mxPoint x="815" y="1865.3" as="targetPoint" />
            <mxPoint as="offset" />
            <Array as="points">
              <mxPoint x="815" y="1865.3" />
            </Array>
          </mxGeometry>
        </mxCell>
        <mxCell id="N0yfgly27lMoUbKmG3n6-173" value="16. 토큰 확인 및 로그인 상태값 유지" style="endArrow=classic;html=1;rounded=0;dashed=1;align=right;fontSize=12;fontStyle=1" parent="1" edge="1">
          <mxGeometry x="-1" y="-10" width="50" height="50" relative="1" as="geometry">
            <mxPoint x="584" y="1927.03" as="sourcePoint" />
            <mxPoint x="364" y="1927.03" as="targetPoint" />
            <Array as="points">
              <mxPoint x="564" y="1927.03" />
            </Array>
            <mxPoint x="1" as="offset" />
          </mxGeometry>
        </mxCell>
        <mxCell id="N0yfgly27lMoUbKmG3n6-174" value="17. 로그인된 상태 유지" style="endArrow=classic;html=1;rounded=0;dashed=1;align=right;fontSize=12;fontStyle=1" parent="1" edge="1">
          <mxGeometry x="-1" y="-10" width="50" height="50" relative="1" as="geometry">
            <mxPoint x="363" y="1948.03" as="sourcePoint" />
            <mxPoint x="143" y="1948.03" as="targetPoint" />
            <Array as="points">
              <mxPoint x="363" y="1948.03" />
              <mxPoint x="333" y="1948.03" />
            </Array>
            <mxPoint as="offset" />
          </mxGeometry>
        </mxCell>
        <mxCell id="N0yfgly27lMoUbKmG3n6-175" value="15. 리프레시 토큰 검증 및&lt;br&gt;액세스 토큰 전달" style="endArrow=classic;html=1;rounded=0;dashed=1;align=right;fontSize=12;fontStyle=1" parent="1" edge="1">
          <mxGeometry x="-0.9654" y="-17" width="50" height="50" relative="1" as="geometry">
            <mxPoint x="814" y="1917.03" as="sourcePoint" />
            <mxPoint x="583" y="1917.03" as="targetPoint" />
            <Array as="points">
              <mxPoint x="779" y="1917.03" />
              <mxPoint x="749" y="1917.03" />
            </Array>
            <mxPoint as="offset" />
          </mxGeometry>
        </mxCell>
        <mxCell id="N0yfgly27lMoUbKmG3n6-176" value="액세스 토큰 재발급 요청 (refresh)" style="shape=umlFrame;whiteSpace=wrap;html=1;pointerEvents=0;width=216;height=20;fillColor=#ffe6cc;strokeColor=#d79b00;" parent="1" vertex="1">
          <mxGeometry x="74" y="1798" width="930" height="172" as="geometry" />
        </mxCell>
        <mxCell id="1TdiW06E6N2jbZ_j3XFL-3" value="8. 백엔드 API 서버 통신 요청" style="html=1;verticalAlign=bottom;endArrow=block;labelBackgroundColor=none;fontFamily=Helvetica;fontSize=12;edgeStyle=elbowEdgeStyle;elbow=vertical;align=left;fontStyle=1" edge="1" parent="1">
          <mxGeometry x="-1" relative="1" as="geometry">
            <mxPoint x="364" y="398.27" as="sourcePoint" />
            <mxPoint x="584.5" y="398.27" as="targetPoint" />
            <mxPoint as="offset" />
          </mxGeometry>
        </mxCell>
        <mxCell id="1TdiW06E6N2jbZ_j3XFL-4" value="9. [POST] /api/v1/join" style="html=1;verticalAlign=bottom;endArrow=block;labelBackgroundColor=none;fontFamily=Helvetica;fontSize=12;edgeStyle=elbowEdgeStyle;elbow=vertical;align=left;fontStyle=1;" edge="1" parent="1">
          <mxGeometry x="-1" relative="1" as="geometry">
            <mxPoint x="583.5" y="418.27" as="sourcePoint" />
            <mxPoint x="814" y="418.27" as="targetPoint" />
            <mxPoint as="offset" />
            <Array as="points">
              <mxPoint x="814" y="418.27" />
            </Array>
          </mxGeometry>
        </mxCell>
        <mxCell id="1TdiW06E6N2jbZ_j3XFL-5" value="11. 결과값 저장 및 컴포넌트에 전달" style="endArrow=classic;html=1;rounded=0;dashed=1;align=right;fontSize=12;fontStyle=1" edge="1" parent="1">
          <mxGeometry x="-1" y="-10" width="50" height="50" relative="1" as="geometry">
            <mxPoint x="583" y="474" as="sourcePoint" />
            <mxPoint x="363" y="474" as="targetPoint" />
            <Array as="points">
              <mxPoint x="563" y="474" />
            </Array>
            <mxPoint x="1" as="offset" />
          </mxGeometry>
        </mxCell>
        <mxCell id="1TdiW06E6N2jbZ_j3XFL-6" value="12. 로그인 페이지로 리다이렉션" style="endArrow=classic;html=1;rounded=0;dashed=1;align=right;fontSize=12;fontStyle=1" edge="1" parent="1">
          <mxGeometry x="-1" y="-10" width="50" height="50" relative="1" as="geometry">
            <mxPoint x="363" y="495" as="sourcePoint" />
            <mxPoint x="143" y="495" as="targetPoint" />
            <Array as="points">
              <mxPoint x="363" y="495" />
              <mxPoint x="333" y="495" />
            </Array>
            <mxPoint as="offset" />
          </mxGeometry>
        </mxCell>
        <mxCell id="1TdiW06E6N2jbZ_j3XFL-7" value="10. 회원가입 결과 전달" style="endArrow=classic;html=1;rounded=0;dashed=1;align=right;fontSize=12;fontStyle=1" edge="1" parent="1">
          <mxGeometry x="-1" y="-10" width="50" height="50" relative="1" as="geometry">
            <mxPoint x="814" y="450" as="sourcePoint" />
            <mxPoint x="583" y="450" as="targetPoint" />
            <Array as="points">
              <mxPoint x="779" y="450" />
              <mxPoint x="749" y="450" />
            </Array>
            <mxPoint x="1" as="offset" />
          </mxGeometry>
        </mxCell>
        <mxCell id="1TdiW06E6N2jbZ_j3XFL-8" value="7. 폼 검증 및 회원가입 요청" style="html=1;verticalAlign=bottom;endArrow=block;labelBackgroundColor=none;fontFamily=Helvetica;fontSize=12;edgeStyle=elbowEdgeStyle;elbow=vertical;align=left;fontStyle=1" edge="1" parent="1">
          <mxGeometry x="-1" relative="1" as="geometry">
            <mxPoint x="143.5" y="380" as="sourcePoint" />
            <mxPoint x="363.5" y="380" as="targetPoint" />
            <mxPoint as="offset" />
          </mxGeometry>
        </mxCell>
        <mxCell id="1TdiW06E6N2jbZ_j3XFL-16" value="1. 로그인 요청" style="html=1;verticalAlign=bottom;endArrow=block;labelBackgroundColor=none;fontFamily=Helvetica;fontSize=12;edgeStyle=elbowEdgeStyle;elbow=vertical;align=left;fontStyle=1" edge="1" parent="1">
          <mxGeometry x="-1" relative="1" as="geometry">
            <mxPoint x="143.5" y="603" as="sourcePoint" />
            <mxPoint x="363.5" y="603" as="targetPoint" />
            <mxPoint as="offset" />
          </mxGeometry>
        </mxCell>
        <mxCell id="1TdiW06E6N2jbZ_j3XFL-17" value="로그인" style="shape=umlFrame;whiteSpace=wrap;html=1;pointerEvents=0;width=126;height=20;fillColor=#fff2cc;strokeColor=#d6b656;" vertex="1" parent="1">
          <mxGeometry x="74" y="554" width="930" height="196" as="geometry" />
        </mxCell>
        <mxCell id="1TdiW06E6N2jbZ_j3XFL-18" value="2. 백엔드 API 서버 통신 요청" style="html=1;verticalAlign=bottom;endArrow=block;labelBackgroundColor=none;fontFamily=Helvetica;fontSize=12;edgeStyle=elbowEdgeStyle;elbow=vertical;align=left;fontStyle=1" edge="1" parent="1">
          <mxGeometry x="-1" relative="1" as="geometry">
            <mxPoint x="364" y="621.27" as="sourcePoint" />
            <mxPoint x="584.5" y="621.27" as="targetPoint" />
            <mxPoint as="offset" />
          </mxGeometry>
        </mxCell>
        <mxCell id="1TdiW06E6N2jbZ_j3XFL-19" value="3. [POST] /api/v1/login" style="html=1;verticalAlign=bottom;endArrow=block;labelBackgroundColor=none;fontFamily=Helvetica;fontSize=12;edgeStyle=elbowEdgeStyle;elbow=vertical;align=left;fontStyle=1;" edge="1" parent="1">
          <mxGeometry x="-1" relative="1" as="geometry">
            <mxPoint x="583.5" y="641.27" as="sourcePoint" />
            <mxPoint x="814" y="641.27" as="targetPoint" />
            <mxPoint as="offset" />
            <Array as="points">
              <mxPoint x="814" y="641.27" />
            </Array>
          </mxGeometry>
        </mxCell>
        <mxCell id="1TdiW06E6N2jbZ_j3XFL-20" value="5. 결과값 저장 및 컴포넌트에 전달" style="endArrow=classic;html=1;rounded=0;dashed=1;align=right;fontSize=12;fontStyle=1" edge="1" parent="1">
          <mxGeometry x="-1" y="-10" width="50" height="50" relative="1" as="geometry">
            <mxPoint x="583" y="697" as="sourcePoint" />
            <mxPoint x="363" y="697" as="targetPoint" />
            <Array as="points">
              <mxPoint x="563" y="697" />
            </Array>
            <mxPoint x="1" as="offset" />
          </mxGeometry>
        </mxCell>
        <mxCell id="1TdiW06E6N2jbZ_j3XFL-21" value="6. 인덱스 페이지로 리다이렉션" style="endArrow=classic;html=1;rounded=0;dashed=1;align=right;fontSize=12;fontStyle=1" edge="1" parent="1">
          <mxGeometry x="-1" y="-10" width="50" height="50" relative="1" as="geometry">
            <mxPoint x="363" y="718" as="sourcePoint" />
            <mxPoint x="143" y="718" as="targetPoint" />
            <Array as="points">
              <mxPoint x="363" y="718" />
              <mxPoint x="333" y="718" />
            </Array>
            <mxPoint as="offset" />
          </mxGeometry>
        </mxCell>
        <mxCell id="1TdiW06E6N2jbZ_j3XFL-22" value="4. 로그인 결과 전달" style="endArrow=classic;html=1;rounded=0;dashed=1;align=right;fontSize=12;fontStyle=1" edge="1" parent="1">
          <mxGeometry x="-1" y="-10" width="50" height="50" relative="1" as="geometry">
            <mxPoint x="814" y="673" as="sourcePoint" />
            <mxPoint x="583" y="673" as="targetPoint" />
            <Array as="points">
              <mxPoint x="779" y="673" />
              <mxPoint x="749" y="673" />
            </Array>
            <mxPoint x="1" as="offset" />
          </mxGeometry>
        </mxCell>
        <mxCell id="1TdiW06E6N2jbZ_j3XFL-23" value="1. 카카오 로그인 요청" style="html=1;verticalAlign=bottom;endArrow=block;labelBackgroundColor=none;fontFamily=Helvetica;fontSize=12;edgeStyle=elbowEdgeStyle;elbow=vertical;align=left;fontStyle=1" edge="1" parent="1">
          <mxGeometry x="-1" relative="1" as="geometry">
            <mxPoint x="143.5" y="826" as="sourcePoint" />
            <mxPoint x="363.5" y="826" as="targetPoint" />
            <mxPoint as="offset" />
          </mxGeometry>
        </mxCell>
        <mxCell id="1TdiW06E6N2jbZ_j3XFL-24" value="2. 카카오 인가 코드 통신 요청" style="html=1;verticalAlign=bottom;endArrow=block;labelBackgroundColor=none;fontFamily=Helvetica;fontSize=12;edgeStyle=elbowEdgeStyle;elbow=vertical;align=left;fontStyle=1" edge="1" parent="1">
          <mxGeometry x="-1" relative="1" as="geometry">
            <mxPoint x="364" y="844.27" as="sourcePoint" />
            <mxPoint x="584.5" y="844.27" as="targetPoint" />
            <mxPoint as="offset" />
          </mxGeometry>
        </mxCell>
        <mxCell id="1TdiW06E6N2jbZ_j3XFL-25" value="3. 카카오 로그인 인가 코드 요청" style="html=1;verticalAlign=bottom;endArrow=block;labelBackgroundColor=none;fontFamily=Helvetica;fontSize=12;edgeStyle=elbowEdgeStyle;elbow=vertical;align=left;fontStyle=1;" edge="1" parent="1">
          <mxGeometry x="-1" relative="1" as="geometry">
            <mxPoint x="586" y="865" as="sourcePoint" />
            <mxPoint x="958.5" y="865" as="targetPoint" />
            <mxPoint as="offset" />
            <Array as="points">
              <mxPoint x="816.5" y="865" />
            </Array>
          </mxGeometry>
        </mxCell>
        <mxCell id="1TdiW06E6N2jbZ_j3XFL-26" value="4. 카카오 로그인 인가 코드를 포함하여 리다이렉션 URI (/social/login/kakao)로 리다이렉션" style="endArrow=classic;html=1;rounded=0;dashed=1;align=right;fontSize=12;fontStyle=1" edge="1" parent="1" target="7baba1c4bc27f4b0-2">
          <mxGeometry x="-1" y="-10" width="50" height="50" relative="1" as="geometry">
            <mxPoint x="958" y="909" as="sourcePoint" />
            <mxPoint x="727" y="909" as="targetPoint" />
            <Array as="points">
              <mxPoint x="923" y="909" />
              <mxPoint x="893" y="909" />
            </Array>
            <mxPoint x="1" as="offset" />
          </mxGeometry>
        </mxCell>
        <mxCell id="1TdiW06E6N2jbZ_j3XFL-27" value="5. 인가 코드를 통한 액세스 토큰 요청" style="html=1;verticalAlign=bottom;endArrow=block;labelBackgroundColor=none;fontFamily=Helvetica;fontSize=12;edgeStyle=elbowEdgeStyle;elbow=vertical;align=left;fontStyle=1" edge="1" parent="1">
          <mxGeometry x="-1" relative="1" as="geometry">
            <mxPoint x="365" y="949.27" as="sourcePoint" />
            <mxPoint x="585.5" y="949.27" as="targetPoint" />
            <mxPoint as="offset" />
          </mxGeometry>
        </mxCell>
        <mxCell id="1TdiW06E6N2jbZ_j3XFL-28" value="6. 카카오 로그인 액세스 토큰 요청" style="html=1;verticalAlign=bottom;endArrow=block;labelBackgroundColor=none;fontFamily=Helvetica;fontSize=12;edgeStyle=elbowEdgeStyle;elbow=vertical;align=left;fontStyle=1;" edge="1" parent="1">
          <mxGeometry x="-1" relative="1" as="geometry">
            <mxPoint x="585" y="971" as="sourcePoint" />
            <mxPoint x="957.5" y="971" as="targetPoint" />
            <mxPoint as="offset" />
            <Array as="points">
              <mxPoint x="815.5" y="971" />
            </Array>
          </mxGeometry>
        </mxCell>
        <mxCell id="1TdiW06E6N2jbZ_j3XFL-29" value="7. 카카오 로그인 액세스 토큰 전달" style="endArrow=classic;html=1;rounded=0;dashed=1;align=right;fontSize=12;fontStyle=1" edge="1" parent="1">
          <mxGeometry x="-1" y="-10" width="50" height="50" relative="1" as="geometry">
            <mxPoint x="959" y="1010" as="sourcePoint" />
            <mxPoint x="365" y="1010" as="targetPoint" />
            <Array as="points">
              <mxPoint x="924" y="1010" />
              <mxPoint x="894" y="1010" />
            </Array>
            <mxPoint x="1" as="offset" />
          </mxGeometry>
        </mxCell>
        <mxCell id="1TdiW06E6N2jbZ_j3XFL-30" value="8. 카카오 회원가입 여부 체크&lt;br&gt;백엔드 API 서버 통신 요청" style="html=1;verticalAlign=bottom;endArrow=block;labelBackgroundColor=none;fontFamily=Helvetica;fontSize=12;edgeStyle=elbowEdgeStyle;elbow=vertical;align=left;fontStyle=1" edge="1" parent="1">
          <mxGeometry x="-1" relative="1" as="geometry">
            <mxPoint x="364" y="1067.22" as="sourcePoint" />
            <mxPoint x="584.5" y="1067.22" as="targetPoint" />
            <mxPoint as="offset" />
          </mxGeometry>
        </mxCell>
        <mxCell id="1TdiW06E6N2jbZ_j3XFL-31" value="9. [POST] /api/v1/oauth/check" style="html=1;verticalAlign=bottom;endArrow=block;labelBackgroundColor=none;fontFamily=Helvetica;fontSize=12;edgeStyle=elbowEdgeStyle;elbow=vertical;align=left;fontStyle=1;" edge="1" parent="1">
          <mxGeometry x="-1" relative="1" as="geometry">
            <mxPoint x="583.5" y="1087.22" as="sourcePoint" />
            <mxPoint x="814" y="1087.22" as="targetPoint" />
            <mxPoint as="offset" />
            <Array as="points">
              <mxPoint x="814" y="1087.22" />
            </Array>
          </mxGeometry>
        </mxCell>
        <mxCell id="1TdiW06E6N2jbZ_j3XFL-32" value="11. 결과값 저장 및 컴포넌트에 전달" style="endArrow=classic;html=1;rounded=0;dashed=1;align=right;fontSize=12;fontStyle=1" edge="1" parent="1">
          <mxGeometry x="-1" y="-10" width="50" height="50" relative="1" as="geometry">
            <mxPoint x="583" y="1140.95" as="sourcePoint" />
            <mxPoint x="363" y="1140.95" as="targetPoint" />
            <Array as="points">
              <mxPoint x="563" y="1140.95" />
            </Array>
            <mxPoint x="1" as="offset" />
          </mxGeometry>
        </mxCell>
        <mxCell id="1TdiW06E6N2jbZ_j3XFL-33" value="10. 회원가입 여부 결과 전달" style="endArrow=classic;html=1;rounded=0;dashed=1;align=right;fontSize=12;fontStyle=1" edge="1" parent="1">
          <mxGeometry x="-1" y="-10" width="50" height="50" relative="1" as="geometry">
            <mxPoint x="814" y="1116.95" as="sourcePoint" />
            <mxPoint x="583" y="1116.95" as="targetPoint" />
            <Array as="points">
              <mxPoint x="779" y="1116.95" />
              <mxPoint x="749" y="1116.95" />
            </Array>
            <mxPoint x="1" as="offset" />
          </mxGeometry>
        </mxCell>
        <mxCell id="1TdiW06E6N2jbZ_j3XFL-34" value="12-1. 회원가입 페이지 화면 노출" style="endArrow=classic;html=1;rounded=0;dashed=1;align=right;fontSize=12;fontStyle=1" edge="1" parent="1">
          <mxGeometry x="-1" y="-10" width="50" height="50" relative="1" as="geometry">
            <mxPoint x="363" y="1215" as="sourcePoint" />
            <mxPoint x="143" y="1215" as="targetPoint" />
            <Array as="points">
              <mxPoint x="363" y="1215" />
              <mxPoint x="333" y="1215" />
            </Array>
            <mxPoint as="offset" />
          </mxGeometry>
        </mxCell>
        <mxCell id="1TdiW06E6N2jbZ_j3XFL-35" value="12-1. 닉네임 중복 체크 요청" style="html=1;verticalAlign=bottom;endArrow=block;labelBackgroundColor=none;fontFamily=Helvetica;fontSize=12;edgeStyle=elbowEdgeStyle;elbow=vertical;align=left;fontStyle=1" edge="1" parent="1">
          <mxGeometry x="-1" relative="1" as="geometry">
            <mxPoint x="145.5" y="1251" as="sourcePoint" />
            <mxPoint x="365.5" y="1251" as="targetPoint" />
            <mxPoint as="offset" />
          </mxGeometry>
        </mxCell>
        <mxCell id="1TdiW06E6N2jbZ_j3XFL-36" value="12-1. 백엔드 API 서버 통신 요청" style="html=1;verticalAlign=bottom;endArrow=block;labelBackgroundColor=none;fontFamily=Helvetica;fontSize=12;edgeStyle=elbowEdgeStyle;elbow=vertical;align=left;fontStyle=1" edge="1" parent="1">
          <mxGeometry x="-1" relative="1" as="geometry">
            <mxPoint x="366" y="1269.27" as="sourcePoint" />
            <mxPoint x="586.5" y="1269.27" as="targetPoint" />
            <mxPoint as="offset" />
          </mxGeometry>
        </mxCell>
        <mxCell id="1TdiW06E6N2jbZ_j3XFL-37" value="12-1. [POST] /api/v1/nicknameCheck" style="html=1;verticalAlign=bottom;endArrow=block;labelBackgroundColor=none;fontFamily=Helvetica;fontSize=12;edgeStyle=elbowEdgeStyle;elbow=vertical;align=left;fontStyle=1;" edge="1" parent="1">
          <mxGeometry x="-1" relative="1" as="geometry">
            <mxPoint x="585.5" y="1289.27" as="sourcePoint" />
            <mxPoint x="816" y="1289.27" as="targetPoint" />
            <mxPoint as="offset" />
            <Array as="points">
              <mxPoint x="816" y="1289.27" />
            </Array>
          </mxGeometry>
        </mxCell>
        <mxCell id="1TdiW06E6N2jbZ_j3XFL-38" value="12-1. 결과값 저장 및 컴포넌트에 전달" style="endArrow=classic;html=1;rounded=0;dashed=1;align=right;fontSize=12;fontStyle=1" edge="1" parent="1">
          <mxGeometry x="-1" y="-10" width="50" height="50" relative="1" as="geometry">
            <mxPoint x="585" y="1345" as="sourcePoint" />
            <mxPoint x="365" y="1345" as="targetPoint" />
            <Array as="points">
              <mxPoint x="565" y="1345" />
            </Array>
            <mxPoint x="1" as="offset" />
          </mxGeometry>
        </mxCell>
        <mxCell id="1TdiW06E6N2jbZ_j3XFL-39" value="12-1. 중복 체크 결과 화면 처리" style="endArrow=classic;html=1;rounded=0;dashed=1;align=right;fontSize=12;fontStyle=1" edge="1" parent="1">
          <mxGeometry x="-1" y="-10" width="50" height="50" relative="1" as="geometry">
            <mxPoint x="365" y="1366" as="sourcePoint" />
            <mxPoint x="145" y="1366" as="targetPoint" />
            <Array as="points">
              <mxPoint x="365" y="1366" />
              <mxPoint x="335" y="1366" />
            </Array>
            <mxPoint as="offset" />
          </mxGeometry>
        </mxCell>
        <mxCell id="1TdiW06E6N2jbZ_j3XFL-40" value="12-1. 중복 체크 결과 전달" style="endArrow=classic;html=1;rounded=0;dashed=1;align=right;fontSize=12;fontStyle=1" edge="1" parent="1">
          <mxGeometry x="-1" y="-10" width="50" height="50" relative="1" as="geometry">
            <mxPoint x="816" y="1321" as="sourcePoint" />
            <mxPoint x="585" y="1321" as="targetPoint" />
            <Array as="points">
              <mxPoint x="781" y="1321" />
              <mxPoint x="751" y="1321" />
            </Array>
            <mxPoint x="1" as="offset" />
          </mxGeometry>
        </mxCell>
        <mxCell id="1TdiW06E6N2jbZ_j3XFL-41" value="12-1. 백엔드 API 서버 통신 요청&lt;br&gt;(카카오 액세스 토큰 전달)" style="html=1;verticalAlign=bottom;endArrow=block;labelBackgroundColor=none;fontFamily=Helvetica;fontSize=12;edgeStyle=elbowEdgeStyle;elbow=vertical;align=left;fontStyle=1" edge="1" parent="1">
          <mxGeometry x="-1" relative="1" as="geometry">
            <mxPoint x="366" y="1430.27" as="sourcePoint" />
            <mxPoint x="586.5" y="1430.27" as="targetPoint" />
            <mxPoint as="offset" />
          </mxGeometry>
        </mxCell>
        <mxCell id="1TdiW06E6N2jbZ_j3XFL-42" value="12-1. [POST] /api/v1/oauth/join/kakao" style="html=1;verticalAlign=bottom;endArrow=block;labelBackgroundColor=none;fontFamily=Helvetica;fontSize=12;edgeStyle=elbowEdgeStyle;elbow=vertical;align=left;fontStyle=1;" edge="1" parent="1">
          <mxGeometry x="-1" relative="1" as="geometry">
            <mxPoint x="585.5" y="1450.27" as="sourcePoint" />
            <mxPoint x="816" y="1450.27" as="targetPoint" />
            <mxPoint as="offset" />
            <Array as="points">
              <mxPoint x="816" y="1450.27" />
            </Array>
          </mxGeometry>
        </mxCell>
        <mxCell id="1TdiW06E6N2jbZ_j3XFL-43" value="12-1. 결과값 저장 및 컴포넌트에 전달" style="endArrow=classic;html=1;rounded=0;dashed=1;align=right;fontSize=12;fontStyle=1" edge="1" parent="1">
          <mxGeometry x="-1" y="-10" width="50" height="50" relative="1" as="geometry">
            <mxPoint x="585" y="1506" as="sourcePoint" />
            <mxPoint x="365" y="1506" as="targetPoint" />
            <Array as="points">
              <mxPoint x="565" y="1506" />
            </Array>
            <mxPoint x="1" as="offset" />
          </mxGeometry>
        </mxCell>
        <mxCell id="1TdiW06E6N2jbZ_j3XFL-44" value="12-1. 로그인 페이지로 리다이렉션" style="endArrow=classic;html=1;rounded=0;dashed=1;align=right;fontSize=12;fontStyle=1" edge="1" parent="1">
          <mxGeometry x="-1" y="-10" width="50" height="50" relative="1" as="geometry">
            <mxPoint x="365" y="1527" as="sourcePoint" />
            <mxPoint x="145" y="1527" as="targetPoint" />
            <Array as="points">
              <mxPoint x="365" y="1527" />
              <mxPoint x="335" y="1527" />
            </Array>
            <mxPoint as="offset" />
          </mxGeometry>
        </mxCell>
        <mxCell id="1TdiW06E6N2jbZ_j3XFL-45" value="12-1. 회원가입 결과 전달" style="endArrow=classic;html=1;rounded=0;dashed=1;align=right;fontSize=12;fontStyle=1" edge="1" parent="1">
          <mxGeometry x="-1" y="-10" width="50" height="50" relative="1" as="geometry">
            <mxPoint x="816" y="1482" as="sourcePoint" />
            <mxPoint x="585" y="1482" as="targetPoint" />
            <Array as="points">
              <mxPoint x="781" y="1482" />
              <mxPoint x="751" y="1482" />
            </Array>
            <mxPoint x="1" as="offset" />
          </mxGeometry>
        </mxCell>
        <mxCell id="1TdiW06E6N2jbZ_j3XFL-46" value="12-1. 폼 검증 및 회원가입 요청" style="html=1;verticalAlign=bottom;endArrow=block;labelBackgroundColor=none;fontFamily=Helvetica;fontSize=12;edgeStyle=elbowEdgeStyle;elbow=vertical;align=left;fontStyle=1" edge="1" parent="1">
          <mxGeometry x="-1" relative="1" as="geometry">
            <mxPoint x="145.5" y="1412" as="sourcePoint" />
            <mxPoint x="365.5" y="1412" as="targetPoint" />
            <mxPoint as="offset" />
          </mxGeometry>
        </mxCell>
        <mxCell id="1TdiW06E6N2jbZ_j3XFL-47" value="12-2. 백엔드 API 서버 통신 요청&lt;br&gt;(카카오 액세스 토큰 전달)" style="html=1;verticalAlign=bottom;endArrow=block;labelBackgroundColor=none;fontFamily=Helvetica;fontSize=12;edgeStyle=elbowEdgeStyle;elbow=vertical;align=left;fontStyle=1" edge="1" parent="1">
          <mxGeometry x="-0.999" relative="1" as="geometry">
            <mxPoint x="364" y="1605.22" as="sourcePoint" />
            <mxPoint x="584.5" y="1605.22" as="targetPoint" />
            <mxPoint as="offset" />
          </mxGeometry>
        </mxCell>
        <mxCell id="1TdiW06E6N2jbZ_j3XFL-48" value="12-2. [POST] /api/v1/oauth/login/kakao" style="html=1;verticalAlign=bottom;endArrow=block;labelBackgroundColor=none;fontFamily=Helvetica;fontSize=12;edgeStyle=elbowEdgeStyle;elbow=vertical;align=left;fontStyle=1;" edge="1" parent="1">
          <mxGeometry x="-1" relative="1" as="geometry">
            <mxPoint x="583.5" y="1625.22" as="sourcePoint" />
            <mxPoint x="814" y="1625.22" as="targetPoint" />
            <mxPoint as="offset" />
            <Array as="points">
              <mxPoint x="814" y="1625.22" />
            </Array>
          </mxGeometry>
        </mxCell>
        <mxCell id="1TdiW06E6N2jbZ_j3XFL-49" value="12-2. 결과값 저장 및 컴포넌트에 전달" style="endArrow=classic;html=1;rounded=0;dashed=1;align=right;fontSize=12;fontStyle=1" edge="1" parent="1">
          <mxGeometry x="-1" y="-10" width="50" height="50" relative="1" as="geometry">
            <mxPoint x="583" y="1680.95" as="sourcePoint" />
            <mxPoint x="363" y="1680.95" as="targetPoint" />
            <Array as="points">
              <mxPoint x="563" y="1680.95" />
            </Array>
            <mxPoint x="1" as="offset" />
          </mxGeometry>
        </mxCell>
        <mxCell id="1TdiW06E6N2jbZ_j3XFL-50" value="12-2. 인덱스 페이지로 리다이렉션" style="endArrow=classic;html=1;rounded=0;dashed=1;align=right;fontSize=12;fontStyle=1" edge="1" parent="1">
          <mxGeometry x="-1" y="-10" width="50" height="50" relative="1" as="geometry">
            <mxPoint x="363" y="1701.95" as="sourcePoint" />
            <mxPoint x="143" y="1701.95" as="targetPoint" />
            <Array as="points">
              <mxPoint x="363" y="1701.95" />
              <mxPoint x="333" y="1701.95" />
            </Array>
            <mxPoint as="offset" />
          </mxGeometry>
        </mxCell>
        <mxCell id="1TdiW06E6N2jbZ_j3XFL-51" value="12-2. 로그인 결과 전달" style="endArrow=classic;html=1;rounded=0;dashed=1;align=right;fontSize=12;fontStyle=1" edge="1" parent="1">
          <mxGeometry x="-1" y="-10" width="50" height="50" relative="1" as="geometry">
            <mxPoint x="814" y="1656.95" as="sourcePoint" />
            <mxPoint x="583" y="1656.95" as="targetPoint" />
            <Array as="points">
              <mxPoint x="779" y="1656.95" />
              <mxPoint x="749" y="1656.95" />
            </Array>
            <mxPoint x="1" as="offset" />
          </mxGeometry>
        </mxCell>
        <mxCell id="1TdiW06E6N2jbZ_j3XFL-52" value="카카오 로그인" style="shape=umlFrame;whiteSpace=wrap;html=1;pointerEvents=0;width=126;height=20;fillColor=#fff2cc;strokeColor=#d6b656;" vertex="1" parent="1">
          <mxGeometry x="74" y="780" width="930" height="1000" as="geometry" />
        </mxCell>
        <mxCell id="1TdiW06E6N2jbZ_j3XFL-54" value="카카오 로그인을 통한 회원가입 (회원가입 되어 있지 않을 경우)" style="shape=umlFrame;whiteSpace=wrap;html=1;pointerEvents=0;width=356;height=20;fillColor=#ffe6cc;strokeColor=#d79b00;" vertex="1" parent="1">
          <mxGeometry x="94" y="1160" width="896" height="390" as="geometry" />
        </mxCell>
        <mxCell id="1TdiW06E6N2jbZ_j3XFL-56" value="카카오 로그인 (회원가입 되어 있는 경우)" style="shape=umlFrame;whiteSpace=wrap;html=1;pointerEvents=0;width=236;height=20;fillColor=#dae8fc;strokeColor=#6c8ebf;" vertex="1" parent="1">
          <mxGeometry x="94" y="1560" width="896" height="180" as="geometry" />
        </mxCell>
        <mxCell id="1TdiW06E6N2jbZ_j3XFL-58" value="21. 리프레시 토큰 검증 및&lt;br&gt;리프레시 토큰 삭제 후 업데이트" style="endArrow=classic;html=1;rounded=0;dashed=1;align=right;fontSize=12;fontStyle=1" edge="1" parent="1">
          <mxGeometry x="-0.9654" y="-17" width="50" height="50" relative="1" as="geometry">
            <mxPoint x="814" y="2151" as="sourcePoint" />
            <mxPoint x="583" y="2151" as="targetPoint" />
            <Array as="points">
              <mxPoint x="779" y="2151" />
              <mxPoint x="749" y="2151" />
            </Array>
            <mxPoint as="offset" />
          </mxGeometry>
        </mxCell>
        <mxCell id="1TdiW06E6N2jbZ_j3XFL-59" value="24. 일반 회원 / 카카오 로그인 회원&lt;br&gt;구분하여 회원 탈퇴 버튼 표시" style="html=1;verticalAlign=bottom;endArrow=block;labelBackgroundColor=none;fontFamily=Helvetica;fontSize=12;edgeStyle=elbowEdgeStyle;elbow=vertical;align=left;fontStyle=1" edge="1" parent="1">
          <mxGeometry x="-0.9972" relative="1" as="geometry">
            <mxPoint x="144" y="2319.4500000000003" as="sourcePoint" />
            <mxPoint x="364" y="2319.4500000000003" as="targetPoint" />
            <mxPoint as="offset" />
          </mxGeometry>
        </mxCell>
        <mxCell id="1TdiW06E6N2jbZ_j3XFL-60" value="25-1. 백엔드 API 서버 통신 요청&lt;br&gt;(HTTPD 리프레시 토큰 전달)" style="html=1;verticalAlign=bottom;endArrow=block;labelBackgroundColor=none;fontFamily=Helvetica;fontSize=12;edgeStyle=elbowEdgeStyle;elbow=vertical;align=left;fontStyle=1" edge="1" parent="1">
          <mxGeometry x="-0.9971" relative="1" as="geometry">
            <mxPoint x="363" y="2403.11" as="sourcePoint" />
            <mxPoint x="583.5" y="2403.11" as="targetPoint" />
            <mxPoint as="offset" />
          </mxGeometry>
        </mxCell>
        <mxCell id="1TdiW06E6N2jbZ_j3XFL-61" value="25-1. [DELETE] /api/v1/withdraw" style="html=1;verticalAlign=bottom;endArrow=block;labelBackgroundColor=none;fontFamily=Helvetica;fontSize=12;edgeStyle=elbowEdgeStyle;elbow=vertical;align=left;fontStyle=1;" edge="1" parent="1">
          <mxGeometry x="-1" relative="1" as="geometry">
            <mxPoint x="582.5" y="2423.11" as="sourcePoint" />
            <mxPoint x="813" y="2423.11" as="targetPoint" />
            <mxPoint as="offset" />
            <Array as="points">
              <mxPoint x="813" y="2423.11" />
            </Array>
          </mxGeometry>
        </mxCell>
        <mxCell id="1TdiW06E6N2jbZ_j3XFL-62" value="25-1. 인증 상태값 삭제,&amp;nbsp; false 처리" style="endArrow=classic;html=1;rounded=0;dashed=1;align=right;fontSize=12;fontStyle=1" edge="1" parent="1">
          <mxGeometry x="-1" y="-10" width="50" height="50" relative="1" as="geometry">
            <mxPoint x="583" y="2525.11" as="sourcePoint" />
            <mxPoint x="363" y="2525.11" as="targetPoint" />
            <Array as="points">
              <mxPoint x="563" y="2525.11" />
            </Array>
            <mxPoint x="1" as="offset" />
          </mxGeometry>
        </mxCell>
        <mxCell id="1TdiW06E6N2jbZ_j3XFL-63" value="25-1. 로그인된 상태 해제&lt;br&gt;인덱스 페이지로 리다이렉션" style="endArrow=classic;html=1;rounded=0;dashed=1;align=right;fontSize=12;fontStyle=1" edge="1" parent="1">
          <mxGeometry x="-0.9727" y="-16" width="50" height="50" relative="1" as="geometry">
            <mxPoint x="363" y="2546.11" as="sourcePoint" />
            <mxPoint x="143" y="2546.11" as="targetPoint" />
            <Array as="points">
              <mxPoint x="363" y="2546.11" />
              <mxPoint x="333" y="2546.11" />
            </Array>
            <mxPoint as="offset" />
          </mxGeometry>
        </mxCell>
        <mxCell id="1TdiW06E6N2jbZ_j3XFL-64" value="회원 탈퇴" style="shape=umlFrame;whiteSpace=wrap;html=1;pointerEvents=0;width=90;height=20;fillColor=#f8cecc;strokeColor=#b85450;" vertex="1" parent="1">
          <mxGeometry x="74" y="2256" width="930" height="874" as="geometry" />
        </mxCell>
        <mxCell id="1TdiW06E6N2jbZ_j3XFL-65" value="25-1. 리프레시 토큰 검증 및&lt;br&gt;회원 탈퇴 처리, &lt;br&gt;리프레시 토큰 삭제 후 업데이트" style="endArrow=classic;html=1;rounded=0;dashed=1;align=right;fontSize=12;fontStyle=1" edge="1" parent="1">
          <mxGeometry x="-0.967" y="-26" width="50" height="50" relative="1" as="geometry">
            <mxPoint x="814" y="2496" as="sourcePoint" />
            <mxPoint x="583" y="2496" as="targetPoint" />
            <Array as="points">
              <mxPoint x="779" y="2496" />
              <mxPoint x="749" y="2496" />
            </Array>
            <mxPoint as="offset" />
          </mxGeometry>
        </mxCell>
        <mxCell id="1TdiW06E6N2jbZ_j3XFL-66" value="일반 회원 탈퇴" style="shape=umlFrame;whiteSpace=wrap;html=1;pointerEvents=0;width=106;height=20;fillColor=#ffe6cc;strokeColor=#d79b00;" vertex="1" parent="1">
          <mxGeometry x="94" y="2340" width="896" height="240" as="geometry" />
        </mxCell>
        <mxCell id="1TdiW06E6N2jbZ_j3XFL-67" value="25-2. 카카오 인가 코드 통신 요청" style="html=1;verticalAlign=bottom;endArrow=block;labelBackgroundColor=none;fontFamily=Helvetica;fontSize=12;edgeStyle=elbowEdgeStyle;elbow=vertical;align=left;fontStyle=1" edge="1" parent="1">
          <mxGeometry x="-1" relative="1" as="geometry">
            <mxPoint x="364" y="2635.37" as="sourcePoint" />
            <mxPoint x="584.5" y="2635.37" as="targetPoint" />
            <mxPoint as="offset" />
          </mxGeometry>
        </mxCell>
        <mxCell id="1TdiW06E6N2jbZ_j3XFL-68" value="25-2. 카카오 로그인 인가 코드 요청" style="html=1;verticalAlign=bottom;endArrow=block;labelBackgroundColor=none;fontFamily=Helvetica;fontSize=12;edgeStyle=elbowEdgeStyle;elbow=vertical;align=left;fontStyle=1;" edge="1" parent="1">
          <mxGeometry x="-1" relative="1" as="geometry">
            <mxPoint x="586" y="2656.1" as="sourcePoint" />
            <mxPoint x="958.5" y="2656.1" as="targetPoint" />
            <mxPoint as="offset" />
            <Array as="points">
              <mxPoint x="816.5" y="2656.1" />
            </Array>
          </mxGeometry>
        </mxCell>
        <mxCell id="1TdiW06E6N2jbZ_j3XFL-69" value="25-2. 카카오 로그인 인가 코드를 포함하여 리다이렉션 URI (/social/withdraw/kakao)로 리다이렉션" style="endArrow=classic;html=1;rounded=0;dashed=1;align=right;fontSize=12;fontStyle=1" edge="1" parent="1">
          <mxGeometry x="-1" y="-10" width="50" height="50" relative="1" as="geometry">
            <mxPoint x="958" y="2700.1" as="sourcePoint" />
            <mxPoint x="364" y="2700.1" as="targetPoint" />
            <Array as="points">
              <mxPoint x="923" y="2700.1" />
              <mxPoint x="893" y="2700.1" />
            </Array>
            <mxPoint x="1" as="offset" />
          </mxGeometry>
        </mxCell>
        <mxCell id="1TdiW06E6N2jbZ_j3XFL-70" value="25-2. 인가 코드를 통한 액세스 토큰 요청" style="html=1;verticalAlign=bottom;endArrow=block;labelBackgroundColor=none;fontFamily=Helvetica;fontSize=12;edgeStyle=elbowEdgeStyle;elbow=vertical;align=left;fontStyle=1" edge="1" parent="1">
          <mxGeometry x="-1" relative="1" as="geometry">
            <mxPoint x="365" y="2740.37" as="sourcePoint" />
            <mxPoint x="585.5" y="2740.37" as="targetPoint" />
            <mxPoint as="offset" />
          </mxGeometry>
        </mxCell>
        <mxCell id="1TdiW06E6N2jbZ_j3XFL-71" value="25-2. 카카오 로그인 액세스 토큰 요청" style="html=1;verticalAlign=bottom;endArrow=block;labelBackgroundColor=none;fontFamily=Helvetica;fontSize=12;edgeStyle=elbowEdgeStyle;elbow=vertical;align=left;fontStyle=1;" edge="1" parent="1">
          <mxGeometry x="-1" relative="1" as="geometry">
            <mxPoint x="585" y="2762.1" as="sourcePoint" />
            <mxPoint x="957.5" y="2762.1" as="targetPoint" />
            <mxPoint as="offset" />
            <Array as="points">
              <mxPoint x="815.5" y="2762.1" />
            </Array>
          </mxGeometry>
        </mxCell>
        <mxCell id="1TdiW06E6N2jbZ_j3XFL-72" value="25-2. 카카오 로그인 액세스 토큰 전달" style="endArrow=classic;html=1;rounded=0;dashed=1;align=right;fontSize=12;fontStyle=1" edge="1" parent="1">
          <mxGeometry x="-1" y="-10" width="50" height="50" relative="1" as="geometry">
            <mxPoint x="959" y="2801.1" as="sourcePoint" />
            <mxPoint x="365" y="2801.1" as="targetPoint" />
            <Array as="points">
              <mxPoint x="924" y="2801.1" />
              <mxPoint x="894" y="2801.1" />
            </Array>
            <mxPoint x="1" as="offset" />
          </mxGeometry>
        </mxCell>
        <mxCell id="1TdiW06E6N2jbZ_j3XFL-75" value="카카오 로그인 회원 탈퇴" style="shape=umlFrame;whiteSpace=wrap;html=1;pointerEvents=0;width=156;height=20;fillColor=#dae8fc;strokeColor=#6c8ebf;" vertex="1" parent="1">
          <mxGeometry x="94" y="2600" width="896" height="500" as="geometry" />
        </mxCell>
        <mxCell id="1TdiW06E6N2jbZ_j3XFL-76" value="25-2. 백엔드 API 서버 통신 요청&lt;br&gt;(HTTPD 리프레시 토큰 및&lt;br&gt;카카오 로그인 액세스 토큰 전달)" style="html=1;verticalAlign=bottom;endArrow=block;labelBackgroundColor=none;fontFamily=Helvetica;fontSize=12;edgeStyle=elbowEdgeStyle;elbow=vertical;align=left;fontStyle=1" edge="1" parent="1">
          <mxGeometry x="-0.9971" relative="1" as="geometry">
            <mxPoint x="365" y="2878.1600000000003" as="sourcePoint" />
            <mxPoint x="585.5" y="2878.1600000000003" as="targetPoint" />
            <mxPoint as="offset" />
          </mxGeometry>
        </mxCell>
        <mxCell id="1TdiW06E6N2jbZ_j3XFL-77" value="25-2. [DELETE] /api/v1/withdraw" style="html=1;verticalAlign=bottom;endArrow=block;labelBackgroundColor=none;fontFamily=Helvetica;fontSize=12;edgeStyle=elbowEdgeStyle;elbow=vertical;align=left;fontStyle=1;" edge="1" parent="1">
          <mxGeometry x="-1" relative="1" as="geometry">
            <mxPoint x="584.5" y="2898.1600000000003" as="sourcePoint" />
            <mxPoint x="815" y="2898.1600000000003" as="targetPoint" />
            <mxPoint as="offset" />
            <Array as="points">
              <mxPoint x="815" y="2898.1600000000003" />
            </Array>
          </mxGeometry>
        </mxCell>
        <mxCell id="1TdiW06E6N2jbZ_j3XFL-78" value="25-2. 연결 끊기 요청&lt;br&gt;(액세스 토큰 전달)" style="html=1;verticalAlign=bottom;endArrow=block;labelBackgroundColor=none;fontFamily=Helvetica;fontSize=12;edgeStyle=elbowEdgeStyle;elbow=vertical;align=left;fontStyle=1;" edge="1" parent="1">
          <mxGeometry x="-1" relative="1" as="geometry">
            <mxPoint x="815" y="2934.0000000000005" as="sourcePoint" />
            <mxPoint x="960" y="2934" as="targetPoint" />
            <mxPoint as="offset" />
            <Array as="points">
              <mxPoint x="1045.5" y="2934.0000000000005" />
            </Array>
          </mxGeometry>
        </mxCell>
        <mxCell id="1TdiW06E6N2jbZ_j3XFL-79" value="25-2. 카카오 로그인 연결 끊기 완료" style="endArrow=classic;html=1;rounded=0;dashed=1;align=right;fontSize=12;fontStyle=1" edge="1" parent="1">
          <mxGeometry x="-1" y="-10" width="50" height="50" relative="1" as="geometry">
            <mxPoint x="959" y="2973" as="sourcePoint" />
            <mxPoint x="142.5" y="2973" as="targetPoint" />
            <Array as="points">
              <mxPoint x="939" y="2973" />
            </Array>
            <mxPoint x="1" as="offset" />
          </mxGeometry>
        </mxCell>
        <mxCell id="1TdiW06E6N2jbZ_j3XFL-80" value="25-2. 인증 상태값 삭제,&amp;nbsp; false 처리" style="endArrow=classic;html=1;rounded=0;dashed=1;align=right;fontSize=12;fontStyle=1" edge="1" parent="1">
          <mxGeometry x="-1" y="-10" width="50" height="50" relative="1" as="geometry">
            <mxPoint x="583" y="3064.11" as="sourcePoint" />
            <mxPoint x="363" y="3064.11" as="targetPoint" />
            <Array as="points">
              <mxPoint x="563" y="3064.11" />
            </Array>
            <mxPoint x="1" as="offset" />
          </mxGeometry>
        </mxCell>
        <mxCell id="1TdiW06E6N2jbZ_j3XFL-81" value="25-2. 로그인된 상태 해제&lt;br&gt;인덱스 페이지로 리다이렉션" style="endArrow=classic;html=1;rounded=0;dashed=1;align=right;fontSize=12;fontStyle=1" edge="1" parent="1">
          <mxGeometry x="-0.9727" y="-16" width="50" height="50" relative="1" as="geometry">
            <mxPoint x="363" y="3085.11" as="sourcePoint" />
            <mxPoint x="143" y="3085.11" as="targetPoint" />
            <Array as="points">
              <mxPoint x="363" y="3085.11" />
              <mxPoint x="333" y="3085.11" />
            </Array>
            <mxPoint as="offset" />
          </mxGeometry>
        </mxCell>
        <mxCell id="1TdiW06E6N2jbZ_j3XFL-82" value="25-2. 리프레시 토큰 검증 및&lt;br&gt;회원 탈퇴 처리, &lt;br&gt;리프레시 토큰 삭제 후 업데이트" style="endArrow=classic;html=1;rounded=0;dashed=1;align=right;fontSize=12;fontStyle=1" edge="1" parent="1">
          <mxGeometry x="-0.967" y="-26" width="50" height="50" relative="1" as="geometry">
            <mxPoint x="814" y="3035" as="sourcePoint" />
            <mxPoint x="583" y="3035" as="targetPoint" />
            <Array as="points">
              <mxPoint x="779" y="3035" />
              <mxPoint x="749" y="3035" />
            </Array>
            <mxPoint as="offset" />
          </mxGeometry>
        </mxCell>
      </root>
    </mxGraphModel>
  </diagram>
</mxfile>
